name rise30.9205peak61.366fall85.3838.mot
datacolumns 19
datarows 21
range 3.45499300000000 3.48832200000000
endheader
time	ground_force1_vx	ground_force1_vy	ground_force1_vz	ground_force1_px	ground_force1_py	ground_force1_pz	ground_force2_vx	ground_force2_vy	ground_force2_vz	ground_force2_px	ground_force2_py	ground_force2_pz	ground_torque1_x	ground_torque1_y	ground_torque1_z	ground_torque2_x	ground_torque2_y	ground_torque2_z	
3.45499300000000	4.71518100000000	684.89140899999995	38.61548600000000	0.23915000000000	0.00000000000000	0.11083300000000	0.00000000000000	0.00000000000000	0.00000000000000	0.00000000000000	0.00000000000000	0.00000000000000	0.00000000000000	17.41532100000000	0.00000000000000	0.00000000000000	0.00000000000000	0.00000000000000	
3.45665800000000	4.32046200000000	686.16122900000005	38.64655700000000	0.23829700000000	0.00000000000000	0.11078900000000	0.00000000000000	0.00000000000000	0.00000000000000	0.00000000000000	0.00000000000000	0.00000000000000	0.00000000000000	17.49980600000000	0.00000000000000	0.00000000000000	0.00000000000000	0.00000000000000	
3.45831900000000	3.91626100000000	687.48468500000001	38.67815100000000	0.23741400000000	0.00000000000000	0.11074600000000	0.00000000000000	0.00000000000000	0.00000000000000	0.00000000000000	0.00000000000000	0.00000000000000	0.00000000000000	17.58572700000000	0.00000000000000	0.00000000000000	0.00000000000000	0.00000000000000	
3.45998700000000	3.50260100000000	688.86117500000000	38.71033600000000	0.23650200000000	0.00000000000000	0.11070500000000	0.00000000000000	0.00000000000000	0.00000000000000	0.00000000000000	0.00000000000000	0.00000000000000	0.00000000000000	17.67305700000000	0.00000000000000	0.00000000000000	0.00000000000000	0.00000000000000	
3.46165200000000	3.07954700000000	690.29011600000001	38.74320800000000	0.23556200000000	0.00000000000000	0.11066500000000	0.00000000000000	0.00000000000000	0.00000000000000	0.00000000000000	0.00000000000000	0.00000000000000	0.00000000000000	17.76177600000000	0.00000000000000	0.00000000000000	0.00000000000000	0.00000000000000	
3.46332000000000	2.64720400000000	691.77093600000001	38.77688600000000	0.23459500000000	0.00000000000000	0.11062700000000	0.00000000000000	0.00000000000000	0.00000000000000	0.00000000000000	0.00000000000000	0.00000000000000	0.00000000000000	17.85187100000000	0.00000000000000	0.00000000000000	0.00000000000000	0.00000000000000	
3.46499100000000	2.20572100000000	693.30307300000004	38.81152000000000	0.23360200000000	0.00000000000000	0.11059000000000	0.00000000000000	0.00000000000000	0.00000000000000	0.00000000000000	0.00000000000000	0.00000000000000	0.00000000000000	17.94333700000000	0.00000000000000	0.00000000000000	0.00000000000000	0.00000000000000	
3.46665900000000	1.75528500000000	694.88597700000003	38.84728200000000	0.23258400000000	0.00000000000000	0.11055400000000	0.00000000000000	0.00000000000000	0.00000000000000	0.00000000000000	0.00000000000000	0.00000000000000	0.00000000000000	18.03617500000000	0.00000000000000	0.00000000000000	0.00000000000000	0.00000000000000	
3.46831700000000	1.29612200000000	696.51909899999998	38.88437000000000	0.23154100000000	0.00000000000000	0.11052000000000	0.00000000000000	0.00000000000000	0.00000000000000	0.00000000000000	0.00000000000000	0.00000000000000	0.00000000000000	18.13039200000000	0.00000000000000	0.00000000000000	0.00000000000000	0.00000000000000	
3.46998500000000	0.82849600000000	698.20189700000003	38.92300600000000	0.23047700000000	0.00000000000000	0.11048800000000	0.00000000000000	0.00000000000000	0.00000000000000	0.00000000000000	0.00000000000000	0.00000000000000	0.00000000000000	18.22600000000000	0.00000000000000	0.00000000000000	0.00000000000000	0.00000000000000	
3.47165400000000	0.35270800000000	699.93382699999995	38.96343400000000	0.22939200000000	0.00000000000000	0.11045600000000	0.00000000000000	0.00000000000000	0.00000000000000	0.00000000000000	0.00000000000000	0.00000000000000	0.00000000000000	18.32301400000000	0.00000000000000	0.00000000000000	0.00000000000000	0.00000000000000	
3.47332200000000	-0.13090800000000	701.71433999999999	39.00591800000000	0.22828700000000	0.00000000000000	0.11042600000000	0.00000000000000	0.00000000000000	0.00000000000000	0.00000000000000	0.00000000000000	0.00000000000000	0.00000000000000	18.42145300000000	0.00000000000000	0.00000000000000	0.00000000000000	0.00000000000000	
3.47498700000000	-0.62198400000000	703.54287999999997	39.05074300000000	0.22716500000000	0.00000000000000	0.11039700000000	0.00000000000000	0.00000000000000	0.00000000000000	0.00000000000000	0.00000000000000	0.00000000000000	0.00000000000000	18.52133800000000	0.00000000000000	0.00000000000000	0.00000000000000	0.00000000000000	
3.47665900000000	-1.12012100000000	705.41887999999994	39.09821200000000	0.22602800000000	0.00000000000000	0.11037000000000	0.00000000000000	0.00000000000000	0.00000000000000	0.00000000000000	0.00000000000000	0.00000000000000	0.00000000000000	18.62269000000000	0.00000000000000	0.00000000000000	0.00000000000000	0.00000000000000	
3.47832100000000	-1.62489100000000	707.34175400000004	39.14864400000000	0.22487700000000	0.00000000000000	0.11034300000000	0.00000000000000	0.00000000000000	0.00000000000000	0.00000000000000	0.00000000000000	0.00000000000000	0.00000000000000	18.72553400000000	0.00000000000000	0.00000000000000	0.00000000000000	0.00000000000000	
3.47999800000000	-2.13583700000000	709.31089899999995	39.20237400000000	0.22371400000000	0.00000000000000	0.11031800000000	0.00000000000000	0.00000000000000	0.00000000000000	0.00000000000000	0.00000000000000	0.00000000000000	0.00000000000000	18.82989000000000	0.00000000000000	0.00000000000000	0.00000000000000	0.00000000000000	
3.48165400000000	-2.65248100000000	711.32568200000003	39.25974900000000	0.22254100000000	0.00000000000000	0.11029400000000	0.00000000000000	0.00000000000000	0.00000000000000	0.00000000000000	0.00000000000000	0.00000000000000	0.00000000000000	18.93577800000000	0.00000000000000	0.00000000000000	0.00000000000000	0.00000000000000	
3.48332500000000	-3.17431800000000	713.38544400000001	39.32112700000000	0.22136000000000	0.00000000000000	0.11027100000000	0.00000000000000	0.00000000000000	0.00000000000000	0.00000000000000	0.00000000000000	0.00000000000000	0.00000000000000	19.04321800000000	0.00000000000000	0.00000000000000	0.00000000000000	0.00000000000000	
3.48499100000000	-3.70082400000000	715.48948600000006	39.38687600000000	0.22017300000000	0.00000000000000	0.11024900000000	0.00000000000000	0.00000000000000	0.00000000000000	0.00000000000000	0.00000000000000	0.00000000000000	0.00000000000000	19.15222400000000	0.00000000000000	0.00000000000000	0.00000000000000	0.00000000000000	
3.48665600000000	-4.23145700000000	717.63707299999999	39.45737300000000	0.21898200000000	0.00000000000000	0.11022700000000	0.00000000000000	0.00000000000000	0.00000000000000	0.00000000000000	0.00000000000000	0.00000000000000	0.00000000000000	19.26280600000000	0.00000000000000	0.00000000000000	0.00000000000000	0.00000000000000	
3.48832200000000	-4.76565800000000	719.82741999999996	39.53299700000000	0.21778900000000	0.00000000000000	0.11020700000000	0.00000000000000	0.00000000000000	0.00000000000000	0.00000000000000	0.00000000000000	0.00000000000000	0.00000000000000	19.37497100000000	0.00000000000000	0.00000000000000	0.00000000000000	0.00000000000000	
